<?xml version="1.0" encoding="UTF-8"?> <svg xmlns="http://www.w3.org/2000/svg" data-v-fde0c5aa="" viewBox="0 0 300 300" class="iconAbove"><!----><defs data-v-fde0c5aa=""><!----></defs><rect data-v-fde0c5aa="" fill="#E7F3FC" x="0" y="0" width="300px" height="300px" class="logo-background-square"></rect><defs data-v-fde0c5aa=""><!----></defs><g data-v-fde0c5aa="" id="2cea64fd-ad15-42a4-955a-9fb8410eb5d9" fill="#253D52" transform="matrix(3.4824540615081787,0,0,3.4824540615081787,16.09965153075849,165.56442654101568)"><path d="M6.65 13.66L2.48 13.66L2.48 11.86L6.65 11.86L6.65 8.75L5.03 7.81L2.74 7.81L1.12 8.75L1.12 13.94L2.74 14.88L6.65 14.88ZM2.48 9.03L5.29 9.03L5.29 10.64L2.48 10.64ZM14.84 8.75L13.22 7.81L11.24 7.81L10.25 8.39L9.91 7.81L8.89 7.81L8.89 14.88L10.25 14.88L10.25 9.03L13.48 9.03L13.48 14.88L14.84 14.88ZM18.44 14.88L21.81 14.88L21.81 16.56L18.16 16.56L18.16 15.16L16.80 15.95L16.80 16.81L18.42 17.75L21.55 17.75L23.17 16.81L23.17 14.60L21.55 13.66L18.44 13.66L18.44 12.47L21.13 12.47L22.75 11.54L22.75 9.60L21.90 9.10L23.17 8.36L23.17 7.88L18.70 7.88L17.08 8.82L17.08 11.69L18.07 12.26L17.08 12.84L17.08 14.10ZM18.44 9.07L21.39 9.07L21.39 11.28L18.44 11.28ZM26.49 7.88L25.13 7.88L25.13 14.88L26.49 14.88ZM25.06 6.16L26.56 6.16L26.56 4.66L25.06 4.66ZM34.68 8.75L33.05 7.81L31.08 7.81L30.09 8.39L29.75 7.81L28.73 7.81L28.73 14.88L30.09 14.88L30.09 9.03L33.32 9.03L33.32 14.88L34.68 14.88ZM42.45 13.66L38.28 13.66L38.28 11.86L42.45 11.86L42.45 8.75L40.82 7.81L38.54 7.81L36.92 8.75L36.92 13.94L38.54 14.88L42.45 14.88ZM38.28 9.03L41.09 9.03L41.09 10.64L38.28 10.64ZM50.22 13.66L46.05 13.66L46.05 11.86L50.22 11.86L50.22 8.75L48.59 7.81L46.31 7.81L44.69 8.75L44.69 13.94L46.31 14.88L50.22 14.88ZM46.05 9.03L48.86 9.03L48.86 10.64L46.05 10.64ZM56.36 9.10L56.36 7.88L54.81 7.88L53.82 8.46L53.48 7.88L52.46 7.88L52.46 14.88L53.82 14.88L53.82 9.10ZM59.26 7.88L57.90 7.88L57.90 14.88L59.26 14.88ZM57.83 6.16L59.33 6.16L59.33 4.66L57.83 4.66ZM67.45 8.75L65.83 7.81L63.85 7.81L62.86 8.39L62.52 7.81L61.50 7.81L61.50 14.88L62.86 14.88L62.86 9.03L66.09 9.03L66.09 14.88L67.45 14.88ZM71.05 14.88L74.42 14.88L74.42 16.56L70.77 16.56L70.77 15.16L69.41 15.95L69.41 16.81L71.04 17.75L74.16 17.75L75.78 16.81L75.78 14.60L74.16 13.66L71.05 13.66L71.05 12.47L73.74 12.47L75.36 11.54L75.36 9.60L74.51 9.10L75.78 8.36L75.78 7.88L71.32 7.88L69.69 8.82L69.69 11.69L70.69 12.26L69.69 12.84L69.69 14.10ZM71.05 9.07L74.00 9.07L74.00 11.28L71.05 11.28Z"></path></g><defs data-v-fde0c5aa=""><linearGradient data-v-fde0c5aa="" gradientTransform="rotate(25)" id="9ee36462-a6e8-46b4-afbb-5d54d2dba9e6" x1="0%" y1="0%" x2="100%" y2="0%"><stop data-v-fde0c5aa="" offset="0%" stop-color="#007DE8" stop-opacity="1"></stop><stop data-v-fde0c5aa="" offset="100%" stop-color="#A1C3DB" stop-opacity="1"></stop></linearGradient></defs><g data-v-fde0c5aa="" id="3dd1aa75-392f-4b7f-95fe-db96b16ae977" stroke="none" fill="url(#9ee36462-a6e8-46b4-afbb-5d54d2dba9e6)" transform="matrix(1.0956535339355469,0,0,1.0956535339355469,95.21754595639669,63.424209939806694)"><path clip-rule="evenodd" d="M37.503 12.605h-2.6l-.3.05-.1.35v4.05c0 .667-.333 1-1 1h-3.8l-.3.05-.1.35v2.4c0 .2.033.333.1.4.034.033.133.05.3.05h3.8c.3 0 .55.1.75.3.167.2.25.433.25.7v3.55c0 .167.033.283.1.35l.3.05h2.6l.3-.05.05-.35v-3.55c0-.267.1-.5.3-.7.2-.2.434-.3.7-.3h3.7c.2 0 .316-.017.35-.05.034-.033.05-.167.05-.4v-2.4l-.05-.35-.35-.05h-3.7c-.267 0-.5-.1-.7-.3-.2-.2-.3-.433-.3-.7v-4.05l-.05-.35-.3-.05zm-4.35-1.35c.434-.433 1.017-.65 1.75-.65h2.6c.733 0 1.3.217 1.7.65.433.434.65 1.017.65 1.75v3.05h2.7c.767 0 1.35.216 1.75.65.433.433.65 1.017.65 1.75v2.4c0 .767-.217 1.367-.65 1.8-.434.434-1.017.65-1.75.65h-2.7v2.55c0 .733-.217 1.317-.65 1.75-.4.433-.967.65-1.7.65h-2.6c-.733 0-1.316-.217-1.75-.65-.433-.433-.65-1.017-.65-1.75v-2.55h-2.8c-.733 0-1.317-.217-1.75-.65-.434-.466-.65-1.066-.65-1.8v-2.4c0-.733.216-1.317.65-1.75.433-.434 1.017-.65 1.75-.65h2.8v-3.05c0-.733.217-1.316.65-1.75zm30.901 2.801l1.2-.35c1-.4 1.75-.667 2.25-.8l1.3-3.8c.133-.533.466-.767 1-.7l5.7.5c.5.067.8.317.9.75l.95 3.85c.533.133.917.267 1.15.4.333.133.883.434 1.65.9l3.7-1.65c.5-.2.9-.1 1.2.3l3.85 4.75c.3.333.333.7.1 1.1l-1.8 3.05c.233.367.433.8.6 1.3.267.667.466 1.317.6 1.95l3.4 1.1c.5.2.716.55.65 1.05l-.5 5.7c0 .467-.267.767-.8.9l-2.9.5-.9 2.2c-.3.9-.667 1.65-1.1 2.25l1.35 2.35c.233.467.183.867-.15 1.2l-3.85 4.05c-.333.4-.75.45-1.25.15l-2.6-1.55c-.533.333-1.2.633-2 .9-.8.3-1.7.55-2.7.75l-1.05 2.65c-.167.433-.483.65-.95.65h-.05l-4.9-.25c-.433 0-.717-.217-.85-.65l-1-2.85-2-.7-2.25-1.25-2.85 1.35c-.466.233-.867.15-1.2-.25l-3.65-4.25c-.333-.4-.333-.833 0-1.3l1.75-2.15-.85-1.9c-.467-1.333-.8-2.45-1-3.35l-2.65-.7c-.467-.1-.733-.417-.8-.95l-.05-5.15c0-.5.267-.817.8-.95l3.35-.8c.1-.467.283-1 .55-1.6.467-.933.867-1.65 1.2-2.15l-1.75-2.8c-.333-.5-.283-.934.15-1.3l4.65-4c.367-.267.75-.316 1.15-.15l3.25 1.7zm10.599-3.201l-4.25-.4-1.2 3.6c-.1.367-.333.6-.7.7-.733.133-1.566.4-2.5.8l-1.75.5c-.2.1-.45.083-.75-.05l-3.05-1.55-3.45 3 1.65 2.65c.267.4.25.8-.05 1.2-.5.633-.95 1.4-1.35 2.3-.3.567-.5 1.133-.6 1.7-.066.466-.316.75-.75.85l-3.15.75v3.6l2.55.65c.433.1.683.35.75.75.3 1.4.633 2.6 1 3.6l1.1 2.35c.167.4.117.767-.15 1.1l-1.6 2 2.6 3 2.65-1.25c.3-.133.617-.117.95.05.6.4 1.433.867 2.5 1.4.667.3 1.4.55 2.2.75.333.067.55.284.65.65l.95 2.7 3.5.15 1-2.45c.1-.333.333-.533.7-.6 1.3-.3 2.3-.583 3-.85.767-.267 1.483-.6 2.15-1 .367-.2.717-.2 1.05 0l2.4 1.45 2.8-2.95-1.3-2.25c-.233-.4-.2-.767.1-1.1.5-.667.9-1.433 1.2-2.3l.05-.15c.466-.967.783-1.8.95-2.5.1-.4.367-.65.8-.75l2.75-.45.35-4.15-3.15-1c-.333-.1-.55-.333-.65-.7-.3-1.1-.533-1.883-.7-2.35-.133-.434-.367-.934-.7-1.5a1.06 1.06 0 0 1 0-1l1.7-2.9-2.9-3.6-3.55 1.55c-.4.167-.733.133-1-.1a12.06 12.06 0 0 0-1.75-1.05c-.533-.2-.917-.317-1.15-.35l-.55-.3a.92.92 0 0 1-.45-.6l-.9-3.6zm5.701 22.951c-1.167 2.4-2.95 4.05-5.35 4.95-1.066.434-2.217.65-3.45.65a9.226 9.226 0 0 1-3.9-.85c-2.5-1.1-4.2-2.85-5.1-5.25-.934-2.434-.867-4.934.2-7.5 1.1-2.367 2.867-4.05 5.3-5.05 2.466-.967 4.933-.867 7.4.3 2.467 1.167 4.15 2.95 5.05 5.35.967 2.5.917 4.95-.15 7.35v.05zm-5.75-10.951c-1.1-.5-2.183-.75-3.25-.75-.9 0-1.75.167-2.55.5-1.967.8-3.367 2.133-4.2 4-.867 2-.933 4-.2 6 .733 1.9 2.083 3.283 4.05 4.15s3.917.9 5.85.1c1.933-.7 3.333-2 4.2-3.9.833-1.934.883-3.883.15-5.85-.767-1.899-2.117-3.316-4.05-4.25zm-13.8 26.601l2.5 7.75c.1.5-.05.883-.45 1.15l-3.75 2.3a32.239 32.239 0 0 1 0 3.6 21.23 21.23 0 0 1-.25 3.8l3.2 2.5c.367.333.466.716.3 1.15l-2.9 7.4c-.167.5-.517.717-1.05.65l-4.55-.65c-.467.566-1.233 1.35-2.3 2.35-.867.767-1.967 1.6-3.3 2.5v4.4c0 .467-.217.783-.65.95l-6.75 2.25-.35.05c-.3 0-.55-.117-.75-.35l-2.8-3.35-3.25.15c-.934-.067-2.184-.233-3.75-.5l-3.3 3.55c-.367.367-.767.433-1.2.2l-6.95-3.8c-.433-.267-.6-.65-.5-1.15l1.15-4c-.566-.5-1.35-1.317-2.35-2.45-1.333-1.433-2.35-2.716-3.05-3.85l-4.25.55c-.533.066-.883-.133-1.05-.6l-2.85-6.8c-.233-.5-.117-.9.35-1.2l4.2-3.1c-.066-.5-.1-1.316-.1-2.45.066-1.533.2-2.783.4-3.75l-4-2.95c-.467-.333-.567-.75-.3-1.25l4.05-7.8c.233-.4.566-.583 1-.55l5.35.55 1.5-1.25a42.49 42.49 0 0 1 2.65-2.3l-.25-6c-.067-.5.167-.833.7-1l7.8-2.4c.433-.167.8-.05 1.1.35l3.5 4.75 1.8-.15h.2l2.7.45 4.25-4.4c.367-.367.767-.417 1.2-.15l7.65 4.25c.433.233.6.567.5 1l-.8 5.2 1.65 1.45 1.9 2.55 5.15-.3c.533-.001.883.233 1.05.7zm17.199 6.899c.767-.033 1.483.283 2.15.95l3.25 3.1 3.25-3.45c1.367-1.367 2.784-1.383 4.25-.05l2.6 2.65c.667.6 1 1.283 1 2.05.067.767-.233 1.467-.9 2.1l-3.35 3.35 3.05 3c.7.7 1.05 1.417 1.05 2.15 0 .767-.35 1.466-1.05 2.1l-2.35 2.5c-.733.733-1.5 1.1-2.3 1.1-.7 0-1.383-.3-2.05-.9l-3.05-3.05-2.8 2.85c-1.367 1.433-2.783 1.5-4.25.2l-2.6-2.65c-.667-.633-1.017-1.333-1.05-2.1-.033-.733.267-1.433.9-2.1l2.85-2.9-3.15-3.1c-.667-.667-1-1.367-1-2.1 0-.733.333-1.467 1-2.2l2.45-2.45c.667-.699 1.367-1.05 2.1-1.05zm.101 2c-.2 0-.45.15-.75.45l-2.45 2.45c-.3.3-.45.567-.45.8 0 .1.133.333.4.7l3.9 3.8c.167.233.25.466.25.7.033.2-.05.434-.25.7l-3.55 3.55c-.434.434-.4.917.1 1.45l2.6 2.6c.467.4.934.35 1.4-.15l3.55-3.55c.2-.2.433-.3.7-.3.3 0 .55.1.75.3l3.7 3.7c.233.233.45.35.65.35.233 0 .517-.167.85-.5l2.4-2.5c.3-.3.45-.533.45-.7 0-.2-.15-.45-.45-.75l-3.75-3.7c-.167-.133-.283-.367-.35-.7 0-.2.1-.434.3-.7l4.05-4.05c.267-.267.4-.483.4-.65-.067-.2-.217-.417-.45-.65l-2.6-2.65c-.3-.3-.55-.433-.75-.4-.2 0-.417.133-.65.4l-3.95 4.15c-.2.2-.433.3-.7.3a.806.806 0 0 1-.7-.25l-3.95-3.8c-.267-.266-.5-.4-.7-.4zm-19-7.549l-4.9.25c-.4 0-.7-.133-.9-.4l-2-2.7-2-1.8c-.233-.233-.333-.533-.3-.9l.8-5-6.4-3.55-4.1 4.25a1.014 1.014 0 0 1-.95.3c-.633-.167-1.617-.35-2.95-.55l-1.9.2h-.25l-.35-.05c-.233-.033-.466-.167-.7-.4l-3.35-4.6-6.4 2 .25 5.7c.033.333-.083.617-.35.85-1 .767-2 1.617-3 2.55a24.38 24.38 0 0 0-1.75 1.55c-.233.233-.5.317-.8.25l-5.15-.55-3.35 6.45 3.8 2.8c.367.267.5.6.4 1a30.355 30.355 0 0 0-.45 4.1c0 .966.05 1.85.15 2.65.066.433-.067.75-.4.95l-4.05 3 2.25 5.35 4.1-.5c.4-.033.717.117.95.45a25.502 25.502 0 0 0 3.25 4.1c.933 1.1 1.816 2 2.65 2.7.3.3.4.65.3 1.05l-1.1 3.8 5.55 3.05 3.15-3.35c.233-.3.533-.417.9-.35.9.2 2.25.4 4.05.6l3.5-.2h.05c.3 0 .567.117.8.35l2.7 3.25 5.4-1.8v-4.25c0-.333.167-.617.5-.85 1.467-.934 2.617-1.8 3.45-2.6.967-.867 1.8-1.717 2.5-2.55.3-.3.6-.417.9-.35l4.3.6 2.3-5.95-3.05-2.45c-.333-.267-.45-.6-.35-1 .267-1.233.367-2.55.3-3.95-.033-.034-.033-.067 0-.1.067-1.6.05-2.934-.05-4-.067-.434.083-.75.45-.95l3.65-2.2-2.05-6.25zm-24.5 1c-2.933 0-5.5 1-7.7 3-2.267 2.066-3.45 4.667-3.55 7.8-.033 3.267 1 6 3.1 8.2 2.1 2.233 4.733 3.45 7.9 3.65 3.167.1 5.883-.934 8.15-3.1 2.233-2.133 3.417-4.717 3.55-7.75.1-3.133-.934-5.85-3.1-8.15-2.1-2.233-4.717-3.45-7.85-3.65h-.5zm-9.05 1.5c2.733-2.467 5.95-3.633 9.65-3.5 3.7.267 6.767 1.683 9.2 4.25 2.567 2.767 3.767 5.983 3.6 9.65-.1 3.566-1.483 6.6-4.15 9.1-2.6 2.433-5.65 3.65-9.15 3.65h-.45c-3.667-.233-6.75-1.65-9.25-4.25-2.533-2.7-3.75-5.917-3.65-9.65.166-3.667 1.566-6.75 4.2-9.25z"></path></g><!----></svg> 