<?xml version="1.0" encoding="UTF-8"?> <svg xmlns="http://www.w3.org/2000/svg" data-v-fde0c5aa="" viewBox="0 0 300 300" class="iconLeft"><!----><defs data-v-fde0c5aa=""><!----></defs><rect data-v-fde0c5aa="" fill="#00acff" x="0" y="0" width="300px" height="300px" class="logo-background-square"></rect><defs data-v-fde0c5aa=""><!----></defs><g data-v-fde0c5aa="" id="be6ade89-7d5b-474c-b422-446b2e7d0ef4" fill="#ffffff" transform="matrix(2.986565113067627,0,0,2.986565113067627,110.07442313482731,117.61070044732442)"><path d="M4.83 8.96C4.83 9.03 4.82 9.09 4.80 9.14C4.73 9.37 4.51 9.52 4.27 9.52C3.96 9.52 3.71 9.27 3.71 8.96C3.71 8.93 3.71 8.90 3.70 8.88C3.68 8.58 3.57 8.32 3.37 8.11C3.16 7.90 2.90 7.77 2.62 7.77C2.34 7.77 2.07 7.90 1.88 8.11C1.68 8.32 1.57 8.58 1.54 8.88L1.54 8.96C1.54 9.27 1.29 9.52 0.98 9.52C0.73 9.52 0.52 9.37 0.45 9.14C0.43 9.09 0.42 9.03 0.42 8.96L0.42 8.88C0.42 8.78 0.43 8.69 0.45 8.60C0.62 7.50 1.53 6.65 2.62 6.65C3.72 6.65 4.63 7.50 4.80 8.60C4.82 8.69 4.82 8.78 4.83 8.88ZM4.83 11.91C4.83 12.53 4.59 13.08 4.16 13.45C3.75 13.80 3.21 14 2.62 14C1.41 14 0.42 12.96 0.42 11.69L0.42 9.53C0.48 9.58 0.53 9.63 0.59 9.66C0.70 9.73 0.84 9.76 0.98 9.76C1.20 9.76 1.40 9.67 1.54 9.53C1.60 9.48 1.64 9.42 1.68 9.35C1.72 9.45 1.79 9.55 1.88 9.63C2.07 9.84 2.34 9.97 2.62 9.97C2.90 9.97 3.16 9.84 3.37 9.63C3.46 9.55 3.51 9.45 3.57 9.35C3.71 9.60 3.96 9.76 4.27 9.76C4.41 9.76 4.54 9.73 4.66 9.66C4.33 10.50 3.54 11.09 2.62 11.09C2.23 11.09 1.86 10.98 1.54 10.79L1.54 11.69C1.54 12.01 1.65 12.32 1.88 12.54C2.07 12.75 2.34 12.88 2.62 12.88C2.94 12.88 3.22 12.78 3.42 12.61C3.61 12.45 3.71 12.21 3.71 11.91C3.71 11.61 3.96 11.35 4.27 11.35C4.58 11.35 4.83 11.61 4.83 11.91ZM10.08 9.02C10.05 9.31 9.81 9.53 9.52 9.53C9.21 9.53 8.97 9.31 8.96 9.02L8.96 8.97C8.96 8.65 8.83 8.34 8.62 8.12C8.41 7.91 8.15 7.78 7.87 7.78C7.59 7.78 7.32 7.91 7.13 8.12C6.90 8.34 6.79 8.65 6.79 8.97C6.79 9.28 6.54 9.53 6.23 9.53C5.92 9.53 5.67 9.28 5.67 8.97C5.67 7.70 6.66 6.66 7.87 6.66C9.09 6.66 10.08 7.70 10.08 8.97ZM6.23 9.77C6.45 9.77 6.65 9.69 6.79 9.55L6.79 13.44C6.79 13.75 6.54 14 6.23 14C5.92 14 5.67 13.75 5.67 13.44L5.67 9.55C5.81 9.69 6.01 9.77 6.23 9.77ZM10.08 13.44C10.08 13.75 9.83 14 9.52 14C9.21 14 8.96 13.75 8.96 13.44L8.96 9.55C9.10 9.69 9.30 9.77 9.52 9.77C9.73 9.77 9.93 9.69 10.08 9.55ZM15.33 11.12C15.18 10.98 14.98 10.89 14.77 10.89C14.55 10.89 14.35 10.98 14.21 11.12L14.21 8.96C14.21 8.64 14.08 8.33 13.87 8.11C13.66 7.90 13.40 7.77 13.12 7.77C12.84 7.77 12.57 7.90 12.38 8.11C12.15 8.33 12.04 8.64 12.04 8.96L12.04 11.12C11.90 10.98 11.70 10.89 11.48 10.89C11.26 10.89 11.06 10.98 10.92 11.12L10.92 8.96C10.92 7.69 11.91 6.65 13.12 6.65C14.34 6.65 15.33 7.69 15.33 8.96ZM13.12 14C11.91 14 10.92 12.96 10.92 11.69C10.92 11.38 11.17 11.13 11.48 11.13C11.79 11.13 12.04 11.38 12.04 11.69C12.04 12.01 12.15 12.32 12.38 12.54C12.57 12.77 12.84 12.88 13.12 12.88C13.40 12.88 13.66 12.77 13.87 12.54C14.08 12.32 14.21 12.01 14.21 11.69C14.21 11.38 14.46 11.13 14.77 11.13C15.08 11.13 15.33 11.38 15.33 11.69C15.33 12.96 14.34 14 13.12 14ZM15.33 14.62C15.33 15.89 14.34 16.93 13.12 16.93C12.53 16.93 11.98 16.73 11.59 16.38C11.16 16.00 10.92 15.46 10.92 14.84C10.92 14.52 11.17 14.28 11.48 14.28C11.79 14.28 12.04 14.52 12.04 14.84C12.04 15.13 12.14 15.37 12.33 15.54C12.53 15.71 12.81 15.81 13.12 15.81C13.40 15.81 13.66 15.68 13.87 15.47C14.08 15.23 14.21 14.94 14.21 14.62L14.21 13.97C14.70 13.72 15.09 13.30 15.33 12.78ZM17.29 5.32C17.29 5.64 17.04 5.89 16.73 5.89C16.42 5.89 16.17 5.64 16.17 5.32C16.17 5.01 16.42 4.76 16.73 4.76C17.04 4.76 17.29 5.01 17.29 5.32ZM17.29 8.99C17.15 8.85 16.95 8.76 16.73 8.76C16.52 8.76 16.31 8.85 16.17 8.99L16.17 7.21C16.17 6.90 16.42 6.65 16.73 6.65C17.04 6.65 17.29 6.90 17.29 7.21ZM17.29 9.56L17.29 13.44C17.29 13.75 17.04 14 16.73 14C16.42 14 16.17 13.75 16.17 13.44L16.17 9.56L16.17 9.51C16.20 9.23 16.44 9.00 16.73 9.00C17.02 9.00 17.26 9.23 17.29 9.51ZM22.54 9.02C22.51 9.31 22.27 9.53 21.98 9.53C21.67 9.53 21.43 9.31 21.42 9.02L21.42 8.97C21.42 8.65 21.29 8.34 21.08 8.12C20.87 7.91 20.61 7.78 20.33 7.78C20.05 7.78 19.78 7.91 19.59 8.12C19.36 8.34 19.25 8.65 19.25 8.97C19.25 9.28 19.00 9.53 18.69 9.53C18.38 9.53 18.13 9.28 18.13 8.97C18.13 7.70 19.12 6.66 20.33 6.66C21.55 6.66 22.54 7.70 22.54 8.97ZM18.69 9.77C18.91 9.77 19.11 9.69 19.25 9.55L19.25 13.44C19.25 13.75 19.00 14 18.69 14C18.38 14 18.13 13.75 18.13 13.44L18.13 9.55C18.27 9.69 18.47 9.77 18.69 9.77ZM22.54 13.44C22.54 13.75 22.29 14 21.98 14C21.67 14 21.42 13.75 21.42 13.44L21.42 9.55C21.56 9.69 21.76 9.77 21.98 9.77C22.19 9.77 22.39 9.69 22.54 9.55ZM27.79 8.96C27.79 9.03 27.78 9.09 27.76 9.14C27.69 9.37 27.47 9.52 27.23 9.52C26.92 9.52 26.67 9.27 26.67 8.96C26.67 8.93 26.67 8.90 26.66 8.88C26.64 8.58 26.53 8.32 26.33 8.11C26.12 7.90 25.86 7.77 25.58 7.77C25.30 7.77 25.03 7.90 24.84 8.11C24.64 8.32 24.53 8.58 24.50 8.88L24.50 8.96C24.50 9.27 24.25 9.52 23.94 9.52C23.69 9.52 23.48 9.37 23.41 9.14C23.39 9.09 23.38 9.03 23.38 8.96L23.38 8.88C23.38 8.78 23.39 8.69 23.41 8.60C23.58 7.50 24.49 6.65 25.58 6.65C26.68 6.65 27.59 7.50 27.76 8.60C27.78 8.69 27.78 8.78 27.79 8.88ZM27.79 11.91C27.79 12.53 27.55 13.08 27.12 13.45C26.71 13.80 26.17 14 25.58 14C24.37 14 23.38 12.96 23.38 11.69L23.38 9.53C23.44 9.58 23.49 9.63 23.55 9.66C23.66 9.73 23.80 9.76 23.94 9.76C24.16 9.76 24.36 9.67 24.50 9.53C24.56 9.48 24.60 9.42 24.64 9.35C24.68 9.45 24.75 9.55 24.84 9.63C25.03 9.84 25.30 9.97 25.58 9.97C25.86 9.97 26.12 9.84 26.33 9.63C26.42 9.55 26.47 9.45 26.53 9.35C26.67 9.60 26.92 9.76 27.23 9.76C27.37 9.76 27.50 9.73 27.62 9.66C27.29 10.50 26.50 11.09 25.58 11.09C25.19 11.09 24.82 10.98 24.50 10.79L24.50 11.69C24.50 12.01 24.61 12.32 24.84 12.54C25.03 12.75 25.30 12.88 25.58 12.88C25.90 12.88 26.18 12.78 26.38 12.61C26.57 12.45 26.67 12.21 26.67 11.91C26.67 11.61 26.92 11.35 27.23 11.35C27.54 11.35 27.79 11.61 27.79 11.91ZM33.04 8.96C33.04 9.03 33.03 9.09 33.01 9.14C32.94 9.37 32.72 9.52 32.48 9.52C32.17 9.52 31.92 9.27 31.92 8.96C31.92 8.93 31.92 8.90 31.91 8.88C31.89 8.58 31.78 8.32 31.58 8.11C31.37 7.90 31.11 7.77 30.83 7.77C30.55 7.77 30.28 7.90 30.09 8.11C29.89 8.32 29.78 8.58 29.75 8.88L29.75 8.96C29.75 9.27 29.50 9.52 29.19 9.52C28.94 9.52 28.73 9.37 28.66 9.14C28.64 9.09 28.63 9.03 28.63 8.96L28.63 8.88C28.63 8.78 28.64 8.69 28.66 8.60C28.83 7.50 29.74 6.65 30.83 6.65C31.93 6.65 32.84 7.50 33.01 8.60C33.03 8.69 33.03 8.78 33.04 8.88ZM33.04 11.91C33.04 12.53 32.80 13.08 32.37 13.45C31.96 13.80 31.42 14 30.83 14C29.62 14 28.63 12.96 28.63 11.69L28.63 9.53C28.69 9.58 28.74 9.63 28.80 9.66C28.91 9.73 29.05 9.76 29.19 9.76C29.41 9.76 29.61 9.67 29.75 9.53C29.81 9.48 29.85 9.42 29.89 9.35C29.93 9.45 30.00 9.55 30.09 9.63C30.28 9.84 30.55 9.97 30.83 9.97C31.11 9.97 31.37 9.84 31.58 9.63C31.67 9.55 31.72 9.45 31.78 9.35C31.92 9.60 32.17 9.76 32.48 9.76C32.62 9.76 32.75 9.73 32.87 9.66C32.54 10.50 31.75 11.09 30.83 11.09C30.44 11.09 30.07 10.98 29.75 10.79L29.75 11.69C29.75 12.01 29.86 12.32 30.09 12.54C30.28 12.75 30.55 12.88 30.83 12.88C31.15 12.88 31.43 12.78 31.63 12.61C31.82 12.45 31.92 12.21 31.92 11.91C31.92 11.61 32.17 11.35 32.48 11.35C32.79 11.35 33.04 11.61 33.04 11.91ZM37.76 7.48C37.34 6.96 36.74 6.66 36.08 6.66C35.66 6.66 35.25 6.79 34.92 7.01C34.82 6.86 34.64 6.75 34.44 6.75C34.13 6.75 33.88 7 33.88 7.31L33.88 8.97C33.88 9.28 34.13 9.53 34.44 9.53C34.75 9.53 35 9.28 35 8.97C35 8.65 35.13 8.34 35.34 8.12C35.53 7.90 35.80 7.78 36.08 7.78C36.39 7.78 36.68 7.92 36.89 8.19C37.09 8.43 37.44 8.46 37.67 8.26C37.93 8.06 37.95 7.71 37.76 7.48ZM34.44 9.77C34.22 9.77 34.02 9.69 33.88 9.53L33.88 13.44C33.88 13.75 34.13 14 34.44 14C34.75 14 35 13.75 35 13.44L35 9.53C34.86 9.69 34.66 9.77 34.44 9.77ZM39.70 5.32C39.70 5.64 39.45 5.89 39.14 5.89C38.84 5.89 38.58 5.64 38.58 5.32C38.58 5.01 38.84 4.76 39.14 4.76C39.45 4.76 39.70 5.01 39.70 5.32ZM39.70 8.99C39.56 8.85 39.37 8.76 39.14 8.76C38.93 8.76 38.72 8.85 38.58 8.99L38.58 7.21C38.58 6.90 38.84 6.65 39.14 6.65C39.45 6.65 39.70 6.90 39.70 7.21ZM39.70 9.56L39.70 13.44C39.70 13.75 39.45 14 39.14 14C38.84 14 38.58 13.75 38.58 13.44L38.58 9.56L38.58 9.51C38.61 9.23 38.85 9.00 39.14 9.00C39.44 9.00 39.68 9.23 39.70 9.51ZM44.95 9.02C44.93 9.31 44.69 9.53 44.39 9.53C44.09 9.53 43.85 9.31 43.83 9.02L43.83 8.97C43.83 8.65 43.71 8.34 43.50 8.12C43.29 7.91 43.02 7.78 42.74 7.78C42.46 7.78 42.20 7.91 42 8.12C41.78 8.34 41.66 8.65 41.66 8.97C41.66 9.28 41.41 9.53 41.10 9.53C40.80 9.53 40.54 9.28 40.54 8.97C40.54 7.70 41.54 6.66 42.74 6.66C43.96 6.66 44.95 7.70 44.95 8.97ZM41.10 9.77C41.33 9.77 41.52 9.69 41.66 9.55L41.66 13.44C41.66 13.75 41.41 14 41.10 14C40.80 14 40.54 13.75 40.54 13.44L40.54 9.55C40.68 9.69 40.88 9.77 41.10 9.77ZM44.95 13.44C44.95 13.75 44.70 14 44.39 14C44.09 14 43.83 13.75 43.83 13.44L43.83 9.55C43.97 9.69 44.17 9.77 44.39 9.77C44.60 9.77 44.80 9.69 44.95 9.55ZM50.20 11.12C50.05 10.98 49.85 10.89 49.64 10.89C49.42 10.89 49.22 10.98 49.08 11.12L49.08 8.96C49.08 8.64 48.96 8.33 48.75 8.11C48.54 7.90 48.27 7.77 47.99 7.77C47.71 7.77 47.45 7.90 47.25 8.11C47.03 8.33 46.91 8.64 46.91 8.96L46.91 11.12C46.77 10.98 46.58 10.89 46.35 10.89C46.13 10.89 45.93 10.98 45.79 11.12L45.79 8.96C45.79 7.69 46.79 6.65 47.99 6.65C49.21 6.65 50.20 7.69 50.20 8.96ZM47.99 14C46.79 14 45.79 12.96 45.79 11.69C45.79 11.38 46.05 11.13 46.35 11.13C46.66 11.13 46.91 11.38 46.91 11.69C46.91 12.01 47.03 12.32 47.25 12.54C47.45 12.77 47.71 12.88 47.99 12.88C48.27 12.88 48.54 12.77 48.75 12.54C48.96 12.32 49.08 12.01 49.08 11.69C49.08 11.38 49.34 11.13 49.64 11.13C49.95 11.13 50.20 11.38 50.20 11.69C50.20 12.96 49.21 14 47.99 14ZM50.20 14.62C50.20 15.89 49.21 16.93 47.99 16.93C47.40 16.93 46.86 16.73 46.47 16.38C46.03 16.00 45.79 15.46 45.79 14.84C45.79 14.52 46.05 14.28 46.35 14.28C46.66 14.28 46.91 14.52 46.91 14.84C46.91 15.13 47.01 15.37 47.21 15.54C47.40 15.71 47.68 15.81 47.99 15.81C48.27 15.81 48.54 15.68 48.75 15.47C48.96 15.23 49.08 14.94 49.08 14.62L49.08 13.97C49.57 13.72 49.97 13.30 50.20 12.78Z"></path></g><defs data-v-fde0c5aa=""><!----></defs><g data-v-fde0c5aa="" id="558e6a9d-e60b-46c7-9ea6-0441de232846" stroke="none" fill="#010033" transform="matrix(0.655197262763977,0,0,0.655197262763977,36.404662811403924,117.23986925050819)"><path clip-rule="evenodd" d="M37.503 12.605h-2.6l-.3.05-.1.35v4.05c0 .667-.333 1-1 1h-3.8l-.3.05-.1.35v2.4c0 .2.033.333.1.4.034.033.133.05.3.05h3.8c.3 0 .55.1.75.3.167.2.25.433.25.7v3.55c0 .167.033.283.1.35l.3.05h2.6l.3-.05.05-.35v-3.55c0-.267.1-.5.3-.7.2-.2.434-.3.7-.3h3.7c.2 0 .316-.017.35-.05.034-.033.05-.167.05-.4v-2.4l-.05-.35-.35-.05h-3.7c-.267 0-.5-.1-.7-.3-.2-.2-.3-.433-.3-.7v-4.05l-.05-.35-.3-.05zm-4.35-1.35c.434-.433 1.017-.65 1.75-.65h2.6c.733 0 1.3.217 1.7.65.433.434.65 1.017.65 1.75v3.05h2.7c.767 0 1.35.216 1.75.65.433.433.65 1.017.65 1.75v2.4c0 .767-.217 1.367-.65 1.8-.434.434-1.017.65-1.75.65h-2.7v2.55c0 .733-.217 1.317-.65 1.75-.4.433-.967.65-1.7.65h-2.6c-.733 0-1.316-.217-1.75-.65-.433-.433-.65-1.017-.65-1.75v-2.55h-2.8c-.733 0-1.317-.217-1.75-.65-.434-.466-.65-1.066-.65-1.8v-2.4c0-.733.216-1.317.65-1.75.433-.434 1.017-.65 1.75-.65h2.8v-3.05c0-.733.217-1.316.65-1.75zm30.901 2.801l1.2-.35c1-.4 1.75-.667 2.25-.8l1.3-3.8c.133-.533.466-.767 1-.7l5.7.5c.5.067.8.317.9.75l.95 3.85c.533.133.917.267 1.15.4.333.133.883.434 1.65.9l3.7-1.65c.5-.2.9-.1 1.2.3l3.85 4.75c.3.333.333.7.1 1.1l-1.8 3.05c.233.367.433.8.6 1.3.267.667.466 1.317.6 1.95l3.4 1.1c.5.2.716.55.65 1.05l-.5 5.7c0 .467-.267.767-.8.9l-2.9.5-.9 2.2c-.3.9-.667 1.65-1.1 2.25l1.35 2.35c.233.467.183.867-.15 1.2l-3.85 4.05c-.333.4-.75.45-1.25.15l-2.6-1.55c-.533.333-1.2.633-2 .9-.8.3-1.7.55-2.7.75l-1.05 2.65c-.167.433-.483.65-.95.65h-.05l-4.9-.25c-.433 0-.717-.217-.85-.65l-1-2.85-2-.7-2.25-1.25-2.85 1.35c-.466.233-.867.15-1.2-.25l-3.65-4.25c-.333-.4-.333-.833 0-1.3l1.75-2.15-.85-1.9c-.467-1.333-.8-2.45-1-3.35l-2.65-.7c-.467-.1-.733-.417-.8-.95l-.05-5.15c0-.5.267-.817.8-.95l3.35-.8c.1-.467.283-1 .55-1.6.467-.933.867-1.65 1.2-2.15l-1.75-2.8c-.333-.5-.283-.934.15-1.3l4.65-4c.367-.267.75-.316 1.15-.15l3.25 1.7zm10.599-3.201l-4.25-.4-1.2 3.6c-.1.367-.333.6-.7.7-.733.133-1.566.4-2.5.8l-1.75.5c-.2.1-.45.083-.75-.05l-3.05-1.55-3.45 3 1.65 2.65c.267.4.25.8-.05 1.2-.5.633-.95 1.4-1.35 2.3-.3.567-.5 1.133-.6 1.7-.066.466-.316.75-.75.85l-3.15.75v3.6l2.55.65c.433.1.683.35.75.75.3 1.4.633 2.6 1 3.6l1.1 2.35c.167.4.117.767-.15 1.1l-1.6 2 2.6 3 2.65-1.25c.3-.133.617-.117.95.05.6.4 1.433.867 2.5 1.4.667.3 1.4.55 2.2.75.333.067.55.284.65.65l.95 2.7 3.5.15 1-2.45c.1-.333.333-.533.7-.6 1.3-.3 2.3-.583 3-.85.767-.267 1.483-.6 2.15-1 .367-.2.717-.2 1.05 0l2.4 1.45 2.8-2.95-1.3-2.25c-.233-.4-.2-.767.1-1.1.5-.667.9-1.433 1.2-2.3l.05-.15c.466-.967.783-1.8.95-2.5.1-.4.367-.65.8-.75l2.75-.45.35-4.15-3.15-1c-.333-.1-.55-.333-.65-.7-.3-1.1-.533-1.883-.7-2.35-.133-.434-.367-.934-.7-1.5a1.06 1.06 0 0 1 0-1l1.7-2.9-2.9-3.6-3.55 1.55c-.4.167-.733.133-1-.1a12.06 12.06 0 0 0-1.75-1.05c-.533-.2-.917-.317-1.15-.35l-.55-.3a.92.92 0 0 1-.45-.6l-.9-3.6zm5.701 22.951c-1.167 2.4-2.95 4.05-5.35 4.95-1.066.434-2.217.65-3.45.65a9.226 9.226 0 0 1-3.9-.85c-2.5-1.1-4.2-2.85-5.1-5.25-.934-2.434-.867-4.934.2-7.5 1.1-2.367 2.867-4.05 5.3-5.05 2.466-.967 4.933-.867 7.4.3 2.467 1.167 4.15 2.95 5.05 5.35.967 2.5.917 4.95-.15 7.35v.05zm-5.75-10.951c-1.1-.5-2.183-.75-3.25-.75-.9 0-1.75.167-2.55.5-1.967.8-3.367 2.133-4.2 4-.867 2-.933 4-.2 6 .733 1.9 2.083 3.283 4.05 4.15s3.917.9 5.85.1c1.933-.7 3.333-2 4.2-3.9.833-1.934.883-3.883.15-5.85-.767-1.899-2.117-3.316-4.05-4.25zm-13.8 26.601l2.5 7.75c.1.5-.05.883-.45 1.15l-3.75 2.3a32.239 32.239 0 0 1 0 3.6 21.23 21.23 0 0 1-.25 3.8l3.2 2.5c.367.333.466.716.3 1.15l-2.9 7.4c-.167.5-.517.717-1.05.65l-4.55-.65c-.467.566-1.233 1.35-2.3 2.35-.867.767-1.967 1.6-3.3 2.5v4.4c0 .467-.217.783-.65.95l-6.75 2.25-.35.05c-.3 0-.55-.117-.75-.35l-2.8-3.35-3.25.15c-.934-.067-2.184-.233-3.75-.5l-3.3 3.55c-.367.367-.767.433-1.2.2l-6.95-3.8c-.433-.267-.6-.65-.5-1.15l1.15-4c-.566-.5-1.35-1.317-2.35-2.45-1.333-1.433-2.35-2.716-3.05-3.85l-4.25.55c-.533.066-.883-.133-1.05-.6l-2.85-6.8c-.233-.5-.117-.9.35-1.2l4.2-3.1c-.066-.5-.1-1.316-.1-2.45.066-1.533.2-2.783.4-3.75l-4-2.95c-.467-.333-.567-.75-.3-1.25l4.05-7.8c.233-.4.566-.583 1-.55l5.35.55 1.5-1.25a42.49 42.49 0 0 1 2.65-2.3l-.25-6c-.067-.5.167-.833.7-1l7.8-2.4c.433-.167.8-.05 1.1.35l3.5 4.75 1.8-.15h.2l2.7.45 4.25-4.4c.367-.367.767-.417 1.2-.15l7.65 4.25c.433.233.6.567.5 1l-.8 5.2 1.65 1.45 1.9 2.55 5.15-.3c.533-.001.883.233 1.05.7zm17.199 6.899c.767-.033 1.483.283 2.15.95l3.25 3.1 3.25-3.45c1.367-1.367 2.784-1.383 4.25-.05l2.6 2.65c.667.6 1 1.283 1 2.05.067.767-.233 1.467-.9 2.1l-3.35 3.35 3.05 3c.7.7 1.05 1.417 1.05 2.15 0 .767-.35 1.466-1.05 2.1l-2.35 2.5c-.733.733-1.5 1.1-2.3 1.1-.7 0-1.383-.3-2.05-.9l-3.05-3.05-2.8 2.85c-1.367 1.433-2.783 1.5-4.25.2l-2.6-2.65c-.667-.633-1.017-1.333-1.05-2.1-.033-.733.267-1.433.9-2.1l2.85-2.9-3.15-3.1c-.667-.667-1-1.367-1-2.1 0-.733.333-1.467 1-2.2l2.45-2.45c.667-.699 1.367-1.05 2.1-1.05zm.101 2c-.2 0-.45.15-.75.45l-2.45 2.45c-.3.3-.45.567-.45.8 0 .1.133.333.4.7l3.9 3.8c.167.233.25.466.25.7.033.2-.05.434-.25.7l-3.55 3.55c-.434.434-.4.917.1 1.45l2.6 2.6c.467.4.934.35 1.4-.15l3.55-3.55c.2-.2.433-.3.7-.3.3 0 .55.1.75.3l3.7 3.7c.233.233.45.35.65.35.233 0 .517-.167.85-.5l2.4-2.5c.3-.3.45-.533.45-.7 0-.2-.15-.45-.45-.75l-3.75-3.7c-.167-.133-.283-.367-.35-.7 0-.2.1-.434.3-.7l4.05-4.05c.267-.267.4-.483.4-.65-.067-.2-.217-.417-.45-.65l-2.6-2.65c-.3-.3-.55-.433-.75-.4-.2 0-.417.133-.65.4l-3.95 4.15c-.2.2-.433.3-.7.3a.806.806 0 0 1-.7-.25l-3.95-3.8c-.267-.266-.5-.4-.7-.4zm-19-7.549l-4.9.25c-.4 0-.7-.133-.9-.4l-2-2.7-2-1.8c-.233-.233-.333-.533-.3-.9l.8-5-6.4-3.55-4.1 4.25a1.014 1.014 0 0 1-.95.3c-.633-.167-1.617-.35-2.95-.55l-1.9.2h-.25l-.35-.05c-.233-.033-.466-.167-.7-.4l-3.35-4.6-6.4 2 .25 5.7c.033.333-.083.617-.35.85-1 .767-2 1.617-3 2.55a24.38 24.38 0 0 0-1.75 1.55c-.233.233-.5.317-.8.25l-5.15-.55-3.35 6.45 3.8 2.8c.367.267.5.6.4 1a30.355 30.355 0 0 0-.45 4.1c0 .966.05 1.85.15 2.65.066.433-.067.75-.4.95l-4.05 3 2.25 5.35 4.1-.5c.4-.033.717.117.95.45a25.502 25.502 0 0 0 3.25 4.1c.933 1.1 1.816 2 2.65 2.7.3.3.4.65.3 1.05l-1.1 3.8 5.55 3.05 3.15-3.35c.233-.3.533-.417.9-.35.9.2 2.25.4 4.05.6l3.5-.2h.05c.3 0 .567.117.8.35l2.7 3.25 5.4-1.8v-4.25c0-.333.167-.617.5-.85 1.467-.934 2.617-1.8 3.45-2.6.967-.867 1.8-1.717 2.5-2.55.3-.3.6-.417.9-.35l4.3.6 2.3-5.95-3.05-2.45c-.333-.267-.45-.6-.35-1 .267-1.233.367-2.55.3-3.95-.033-.034-.033-.067 0-.1.067-1.6.05-2.934-.05-4-.067-.434.083-.75.45-.95l3.65-2.2-2.05-6.25zm-24.5 1c-2.933 0-5.5 1-7.7 3-2.267 2.066-3.45 4.667-3.55 7.8-.033 3.267 1 6 3.1 8.2 2.1 2.233 4.733 3.45 7.9 3.65 3.167.1 5.883-.934 8.15-3.1 2.233-2.133 3.417-4.717 3.55-7.75.1-3.133-.934-5.85-3.1-8.15-2.1-2.233-4.717-3.45-7.85-3.65h-.5zm-9.05 1.5c2.733-2.467 5.95-3.633 9.65-3.5 3.7.267 6.767 1.683 9.2 4.25 2.567 2.767 3.767 5.983 3.6 9.65-.1 3.566-1.483 6.6-4.15 9.1-2.6 2.433-5.65 3.65-9.15 3.65h-.45c-3.667-.233-6.75-1.65-9.25-4.25-2.533-2.7-3.75-5.917-3.65-9.65.166-3.667 1.566-6.75 4.2-9.25z"></path></g><!----></svg> 