<?xml version="1.0" encoding="UTF-8"?> <svg xmlns="http://www.w3.org/2000/svg" data-v-fde0c5aa="" viewBox="0 0 300 300" class="iconAbove"><!----><defs data-v-fde0c5aa=""><!----></defs><rect data-v-fde0c5aa="" fill="transparent" x="0" y="0" width="300px" height="300px" class="logo-background-square"></rect><defs data-v-fde0c5aa=""><!----></defs><g data-v-fde0c5aa="" id="59774521-c324-4a37-b2eb-e4e7bb56f583" fill="#000000" transform="matrix(3.6681716997028,0,0,3.6681716997028,18.826184973011877,182.49463886640893)"><path d="M5.26 10.50L5.26 1.90L8.55 1.90L8.55 0.42L0.32 0.42L0.32 1.90L3.61 1.90L3.61 10.50ZM13.59 7.28C13.61 7.21 13.61 6.85 13.61 6.66C13.61 4.44 12.31 3.01 10.23 3.01C8.27 3.01 6.80 4.35 6.80 6.86C6.80 9.37 8.27 10.71 10.23 10.71C11.89 10.71 13.05 9.93 13.51 8.37L12.04 8.06C11.83 8.93 11.13 9.42 10.33 9.42C9.32 9.42 8.46 8.76 8.36 7.28ZM10.22 4.31C11.27 4.31 11.94 5.05 12.00 6.13L8.40 6.13C8.58 4.89 9.41 4.31 10.22 4.31ZM16.04 6.86C16.04 5.10 16.86 4.31 17.88 4.31C18.66 4.31 19.28 4.75 19.50 5.81L21.01 5.52C20.62 3.85 19.45 3.01 17.88 3.01C15.90 3.01 14.49 4.35 14.49 6.86C14.49 9.37 15.90 10.71 17.88 10.71C19.45 10.71 20.62 9.88 21.01 8.22L19.50 7.92C19.28 8.97 18.66 9.42 17.88 9.42C16.84 9.42 16.04 8.62 16.04 6.86ZM23.87 10.50L23.87 6.54C23.87 5.10 24.60 4.33 25.59 4.33C26.59 4.33 26.96 4.98 26.96 6.09L26.96 10.50L28.52 10.50L28.52 6.03C28.52 4.30 27.97 3.01 25.96 3.01C25.00 3.01 24.32 3.39 23.87 4.19L23.87 0.42L22.32 0.42L22.32 10.50ZM31.78 10.50L31.78 6.54C31.78 5.10 32.51 4.33 33.50 4.33C34.50 4.33 34.87 4.98 34.87 6.09L34.87 10.50L36.43 10.50L36.43 6.03C36.43 4.30 35.88 3.01 33.87 3.01C32.91 3.01 32.19 3.37 31.65 4.27L31.65 3.22L30.23 3.22L30.23 10.50ZM37.72 6.86C37.72 9.37 39.20 10.71 41.20 10.71C43.19 10.71 44.67 9.37 44.67 6.86C44.67 4.35 43.19 3.01 41.20 3.01C39.20 3.01 37.72 4.35 37.72 6.86ZM39.27 6.86C39.27 5.10 40.14 4.31 41.20 4.31C42.25 4.31 43.12 5.10 43.12 6.86C43.12 8.62 42.25 9.42 41.20 9.42C40.14 9.42 39.27 8.62 39.27 6.86ZM47.52 10.50L47.52 0.21L45.96 0.77L45.96 10.50ZM48.82 6.86C48.82 9.37 50.30 10.71 52.30 10.71C54.29 10.71 55.78 9.37 55.78 6.86C55.78 4.35 54.29 3.01 52.30 3.01C50.30 3.01 48.82 4.35 48.82 6.86ZM50.37 6.86C50.37 5.10 51.24 4.31 52.30 4.31C53.35 4.31 54.22 5.10 54.22 6.86C54.22 8.62 53.35 9.42 52.30 9.42C51.24 9.42 50.37 8.62 50.37 6.86ZM63.20 10.04L63.20 3.22L61.78 3.22L61.78 4.17C61.36 3.47 60.69 3.01 59.78 3.01C57.86 3.01 56.64 4.47 56.64 6.83C56.64 9.20 57.89 10.67 59.81 10.67C60.58 10.67 61.22 10.35 61.64 9.79L61.64 10.25C61.67 11.47 61.11 12.18 59.88 12.18C59.07 12.18 58.44 11.82 58.37 11.14L56.88 10.96C56.88 12.70 58.45 13.44 59.86 13.44C62.43 13.44 63.20 11.84 63.20 10.04ZM61.80 6.83C61.80 8.54 61.01 9.37 59.98 9.37C58.95 9.37 58.20 8.54 58.20 6.83C58.20 5.14 58.97 4.31 59.98 4.31C60.89 4.31 61.80 5.14 61.80 6.83ZM64.95 13.27C65.21 13.37 65.51 13.44 65.84 13.44C67.09 13.44 67.73 12.57 68.26 11.16L71.20 3.22L69.68 3.22L67.75 8.58L65.79 3.22L64.19 3.22L67.02 10.43L66.78 11.07C66.49 11.80 66.12 12.07 65.58 12.07C65.27 12.07 65.04 12.00 64.81 11.91L64.95 13.27Z"></path></g><defs data-v-fde0c5aa=""><linearGradient data-v-fde0c5aa="" gradientTransform="rotate(25)" id="b2a02632-9453-4524-8b9c-a22f618b12be" x1="0%" y1="0%" x2="100%" y2="0%"><stop data-v-fde0c5aa="" offset="0%" stop-color="#0015D6" stop-opacity="1"></stop><stop data-v-fde0c5aa="" offset="100%" stop-color="#0989FB" stop-opacity="1"></stop></linearGradient></defs><g data-v-fde0c5aa="" id="d8a5db09-4f54-4569-acab-9c97ab0105f8" stroke="none" fill="url(#b2a02632-9453-4524-8b9c-a22f618b12be)" transform="matrix(1.4594232643785645,0,0,1.4594232643785645,78.7089468459412,40.83272052380404)"><path d="M33.3 67.4h-8.9c-1-2.4-3.4-4.1-6.1-4-3.4.1-6.3 3-6.4 6.4-.1 3.6 2.9 6.6 6.5 6.6 2.7 0 5-1.7 6-4h11.2l7.6-9h49.1c1.4 0 2.5-1.1 2.5-2.5s-1.1-2.5-2.5-2.5H41l-7.7 9zm-14.9 4c-.8 0-1.5-.7-1.5-1.5s.7-1.5 1.5-1.5 1.5.7 1.5 1.5-.6 1.5-1.5 1.5zM35.6 31.6H15.2c-1-2.4-3.4-4.1-6.1-4-3.4.1-6.3 3-6.4 6.4-.1 3.6 2.9 6.6 6.5 6.6 2.7 0 5-1.7 6-4h18.1l7.6 9h51.4c1.4 0 2.5-1.1 2.5-2.5s-1.1-2.5-2.5-2.5h-49l-7.7-9zm-26.4 4c-.8 0-1.5-.7-1.5-1.5s.7-1.5 1.5-1.5 1.5.7 1.5 1.5-.7 1.5-1.5 1.5z"></path><path d="M44.3 72.7c-1.3-.5-2.9-.6-4.5 0-2.1.8-3.7 2.6-4.1 4.8-.8 4.4 2.8 8.3 7.2 7.7 2.7-.3 4.9-2.4 5.5-5 .3-1.5.1-2.9-.5-4.1l2.8-3.7h41.5c1.4 0 2.5-1.1 2.5-2.5s-1.1-2.5-2.5-2.5h-44l-3.9 5.3zm-2.2 7.7c-.8 0-1.5-.7-1.5-1.5s.7-1.5 1.5-1.5 1.5.7 1.5 1.5-.7 1.5-1.5 1.5zM34.5 45.5c-3.6 0-6.6 3-6.5 6.6.1 3.4 2.9 6.3 6.4 6.4 2.8.1 5.1-1.6 6.1-4h51.8c1.4 0 2.5-1.1 2.5-2.5s-1.1-2.5-2.5-2.5H40.5c-1-2.4-3.3-4-6-4zm0 8c-.8 0-1.5-.7-1.5-1.5s.7-1.5 1.5-1.5 1.5.7 1.5 1.5-.7 1.5-1.5 1.5zM59.3 31.6l-2.8-3.7c.6-1.2.8-2.6.5-4.1-.6-2.6-2.8-4.7-5.5-5-4.4-.5-8.1 3.3-7.2 7.7.4 2.2 2 4.1 4.1 4.8 1.6.6 3.1.5 4.5 0l4.1 5.3h35.5c1.4 0 2.5-1.1 2.5-2.5s-1.1-2.5-2.5-2.5H59.3zM49 25.1c0-.8.7-1.5 1.5-1.5s1.5.7 1.5 1.5-.7 1.5-1.5 1.5c-.8.1-1.5-.6-1.5-1.5z"></path></g><!----></svg> 